<?xml version="1.0" encoding="UTF-8"?>
<svg id="misc" xmlns="http://www.w3.org/2000/svg" viewBox="0 0 258 258">
  <defs>
    <style>
      .cls-1 {
        fill: #ba9cf7;
      }

      .cls-1, .cls-2, .cls-3, .cls-4 {
        fill-rule: evenodd;
      }

      .cls-2 {
        stroke: #4c3082;
      }

      .cls-2, .cls-4 {
        fill: none;
        stroke-linecap: round;
        stroke-linejoin: round;
        stroke-width: 7.96px;
      }

      .cls-3 {
        fill: #7047c2;
      }

      .cls-4 {
        stroke: #996ee5;
      }
    </style>
  </defs>
  <g>
    <path class="cls-3" d="m30.48,135.25c0-63.31,70.81-54,89.38-108.9,2.42,2.98,5.14,5.15,9.13,5.15s6.72-2.17,9.13-5.15c18.57,54.9,89.39,45.59,89.39,108.9,0,47.79-43.52,79.11-98.52,79.16-55-.05-98.51-31.37-98.51-79.16Z"/>
    <path class="cls-1" d="m41.1,135.25c0-25.88,13.39-36.58,32.72-48.59,14.18-8.82,32.6-18.53,45.45-36.25l5.51-8.9,4.22.61,4.21-.62,5.51,8.91c12.86,17.72,31.28,27.43,45.46,36.25,19.24,11.96,32.72,22.63,32.72,48.59,0,39.6-36.12,68.5-87.9,68.55-51.78-.05-87.9-28.95-87.9-68.55Z"/>
  </g>
  <g>
    <path class="cls-4" d="m128.99,35.06c-18.05,53.88-84.85,46.28-84.85,100.16,0,43.54,50.8,70.5,84.85,70.5"/>
    <path class="cls-4" d="m128.99,35.06c-18.71,69.84-67.86,59.22-67.86,113.11,0,28.72,33.81,57.55,67.86,57.55"/>
    <path class="cls-4" d="m128.99,35.06c-11.7,73.66-42.71,83.2-42.71,121.65,0,28.73,22.45,49.01,42.71,49.01"/>
    <path class="cls-4" d="m128.99,98.52c-8.73,30.38-18.29,40.15-18.29,68.6-.04,14.05,9.64,37.99,18.29,38.6"/>
    <path class="cls-4" d="m128.99,35.06c18.05,53.88,84.96,46.11,84.96,99.99,0,43.54-50.92,70.67-84.96,70.67"/>
    <path class="cls-4" d="m128.99,35.06c18.71,69.84,67.85,59.22,67.85,113.11,0,28.72-33.81,57.55-67.85,57.55"/>
    <path class="cls-4" d="m128.99,35.06c11.7,73.66,42.7,83.2,42.7,121.65,0,28.73-22.44,49.01-42.7,49.01"/>
    <path class="cls-4" d="m128.99,98.52c8.73,30.38,18.28,40.15,18.28,68.6.05,14.05-9.63,37.99-18.28,38.6"/>
  </g>
  <path class="cls-2" d="m128.84,231.64v-15.7l-10.31,12.71-.27-.22,10.24-12.63-17.18,5.78-.11-.34,17.63-5.93v-.37l.17.22.19-.22v.37l17.62,5.93-.11.34-17.17-5.78,10.23,12.63-.27.22-10.3-12.71v15.7h-.36ZM30.48,135.25c0-63.31,70.81-54,89.38-108.9,2.42,2.98,5.14,5.15,9.13,5.15s6.72-2.17,9.13-5.15c18.57,54.9,89.39,45.59,89.39,108.9,0,47.79-43.52,79.11-98.52,79.16-55-.05-98.51-31.37-98.51-79.16Z"/>
</svg>