<?xml version="1.0" standalone="no"?>
<!DOCTYPE svg PUBLIC "-//W3C//DTD SVG 1.1//EN" "http://www.w3.org/Graphics/SVG/1.1/DTD/svg11.dtd">
<!--Generator: Xara Designer (www.xara.com), SVG filter version: 6.3.0.4-->
<svg stroke-width="0.501" stroke-linejoin="bevel" fill-rule="evenodd" xmlns:xlink="http://www.w3.org/1999/xlink" xmlns="http://www.w3.org/2000/svg" version="1.1" overflow="visible" width="600pt" height="240pt" viewBox="0 0 600 240">
 <defs>
	</defs>
 <g id="Document" fill="none" stroke="black" font-family="Times New Roman" font-size="16" transform="scale(1 -1)">
  <g id="Spread" transform="translate(0 -240)">
   <g id="MouseOff">
    <g id="Group">
     <path d="M 0,240 L 0,-0.001 L 599.999,-0.001 L 599.999,240 L 0,240 Z" stroke-linecap="round" stroke="none" stroke-width="1.992" stroke-linejoin="miter" marker-start="none" marker-end="none" stroke-miterlimit="79.8403193612775"/>
     <g id="Group_1">
      <g id="Group_2">
       <path d="M 140.69,59.685 L 157.028,176.417 C 157.206,177.686 158.293,178.632 159.575,178.632 L 187.041,178.632 C 188.46,178.632 189.612,177.48 189.612,176.061 L 189.612,158.437 L 199.047,166.521 C 212.839,176.706 226.6,181.947 240.316,181.947 C 250.774,181.947 259.19,178.899 265.165,172.486 C 271.24,165.963 273.159,156.902 271.511,145.856 L 259.199,58.968 C 259.019,57.7 257.934,56.758 256.654,56.758 L 221.848,56.758 C 220.288,56.758 219.086,58.138 219.301,59.683 L 229.957,136.168 C 230.754,141.753 230.417,144.672 229.785,145.799 C 229.418,146.456 228.31,147.356 224.765,147.208 C 218.81,147.102 210.821,143.906 200.678,137.191 L 190.621,129.876 L 180.826,58.977 C 180.651,57.705 179.563,56.758 178.28,56.758 L 143.237,56.758 C 141.676,56.758 140.474,58.14 140.69,59.685 Z M 272.039,59.685 L 288.377,176.417 C 288.555,177.686 289.642,178.632 290.924,178.632 L 325.73,178.632 C 327.29,178.632 328.492,177.249 328.276,175.704 L 311.939,58.972 C 311.761,57.703 310.674,56.758 309.393,56.758 L 274.586,56.758 C 273.025,56.758 271.823,58.14 272.039,59.685 Z M 457.7,59.685 L 474.038,176.417 C 474.216,177.686 475.303,178.632 476.585,178.632 L 504.051,178.632 C 505.47,178.632 506.622,177.48 506.622,176.061 L 506.622,158.437 L 516.057,166.521 C 529.849,176.706 543.61,181.947 557.326,181.947 C 567.784,181.947 576.2,178.899 582.175,172.486 C 588.25,165.963 590.169,156.902 588.521,145.856 L 576.209,58.968 C 576.029,57.7 574.944,56.758 573.664,56.758 L 538.858,56.758 C 537.298,56.758 536.096,58.138 536.311,59.683 L 546.967,136.168 C 547.764,141.753 547.427,144.672 546.795,145.799 C 546.428,146.456 545.32,147.356 541.775,147.208 C 535.82,147.102 527.831,143.906 517.688,137.191 L 507.631,129.876 L 497.836,58.977 C 497.661,57.705 496.573,56.758 495.29,56.758 L 460.247,56.758 C 458.686,56.758 457.484,58.14 457.7,59.685 Z M 292.162,205.756 L 293.815,218.264 C 294.579,226.098 299.478,230.25 307.498,230.25 L 322.179,230.25 C 331.082,230.25 335.639,225.336 334.676,216.482 L 333.012,203.645 C 331.861,195.974 326.928,191.959 319.1,191.959 L 304.183,191.959 C 295.344,191.959 291.018,196.979 292.162,205.756 Z" fill="#7147c2" stroke-linejoin="round" stroke="none" stroke-width="4.933" marker-start="none" marker-end="none" stroke-miterlimit="79.8403193612775"/>
       <g id="Group_3">
        <g id="Group_4" fill="#7147c2" fill-rule="nonzero" stroke-linejoin="round" stroke-linecap="round" stroke="none" stroke-width="4.933" stroke-miterlimit="79.8403193612775">
         <g id="Group_5">
          <path d="M 143.237,59.329 L 159.575,176.061 L 187.041,176.061 L 187.041,152.857 C 205.194,170.536 222.953,179.376 240.316,179.376 C 250.261,179.376 257.917,176.495 263.284,170.734 C 268.651,164.972 270.545,156.803 268.967,146.227 L 256.654,59.329 L 221.848,59.329 L 232.503,135.809 C 233.292,141.334 233.134,145.083 232.029,147.056 C 230.924,149.029 228.477,149.937 224.689,149.779 C 215.849,149.621 203.695,143.465 188.225,131.31 L 178.28,59.329 L 143.237,59.329 Z" marker-start="none" marker-end="none"/>
          <path d="M 274.586,59.329 L 290.924,176.061 L 325.73,176.061 L 309.393,59.329 L 274.586,59.329 Z M 294.712,205.422 L 296.37,217.971 C 297.001,224.443 300.711,227.679 307.498,227.679 L 322.179,227.679 C 329.598,227.679 332.913,224.049 332.123,216.787 L 330.466,204.001 C 329.519,197.687 325.73,194.53 319.1,194.53 L 304.183,194.53 C 296.922,194.53 293.765,198.161 294.712,205.422 Z" marker-start="none" marker-end="none"/>
          <path d="M 460.247,59.329 L 476.585,176.061 L 504.051,176.061 L 504.051,152.857 C 522.204,170.536 539.963,179.376 557.326,179.376 C 567.271,179.376 574.927,176.495 580.294,170.734 C 585.661,164.972 587.555,156.803 585.977,146.227 L 573.664,59.329 L 538.858,59.329 L 549.513,135.809 C 550.302,141.334 550.144,145.083 549.039,147.056 C 547.934,149.029 545.487,149.937 541.699,149.779 C 532.859,149.621 520.705,143.465 505.235,131.31 L 495.29,59.329 L 460.247,59.329 Z" marker-start="none" marker-end="none"/>
         </g>
        </g>
       </g>
      </g>
      <path d="M 339.563,68.565 C 330.431,78.773 327.51,95.488 330.801,118.705 C 334.092,141.758 340.921,158.02 351.289,167.487 C 361.655,176.956 378.029,181.69 400.408,181.69 C 422.953,181.69 438.667,176.586 447.553,166.377 C 456.439,156.167 459.236,139.289 455.946,115.741 C 452.819,92.853 446.031,76.716 435.582,67.33 C 425.132,57.944 408.883,53.251 386.832,53.251 C 364.453,53.251 348.697,58.356 339.563,68.565 Z M 413.12,94.017 C 418.01,98.407 421.183,105.956 422.646,116.661 C 424.186,127.676 422.877,135.571 418.721,140.347 C 414.564,145.122 407.213,147.509 396.669,147.509 C 386.201,147.509 378.542,145.295 373.692,140.867 C 368.844,136.437 365.65,128.831 364.111,118.048 C 362.57,107.188 363.937,99.37 368.209,94.595 C 372.481,89.82 379.851,87.432 390.319,87.432 C 400.634,87.432 408.233,89.627 413.12,94.017 Z" fill="#7147c2" stroke="none" stroke-width="0.191" fill-rule="nonzero" stroke-linejoin="round" stroke-linecap="round" marker-start="none" marker-end="none" stroke-miterlimit="79.8403193612775"/>
      <path d="M 22.637,71.8 C 13.666,81.827 10.798,98.244 14.03,121.05 C 17.263,143.694 23.971,159.666 34.153,168.966 C 45.678,179.568 75.28,177.725 89.116,194.343 C 88.956,176.021 116.762,182.458 128.708,167.874 C 137.436,157.846 140.184,141.267 136.951,118.139 C 133.881,95.657 127.213,79.806 116.95,70.586 C 106.686,61.367 90.724,56.758 69.066,56.758 C 47.084,56.758 31.608,61.772 22.637,71.8 Z M 94.888,96.8 C 99.689,101.111 102.807,108.526 104.244,119.042 C 105.756,129.861 104.47,137.616 100.388,142.306 C 96.305,146.997 89.085,149.342 78.727,149.342 C 68.446,149.342 60.923,147.167 56.16,142.817 C 51.398,138.466 48.26,130.995 46.748,120.404 C 45.236,109.737 46.578,102.058 50.774,97.367 C 54.969,92.677 62.208,90.331 72.491,90.331 C 82.622,90.331 90.087,92.488 94.888,96.8 Z" fill="#7147c2" stroke="#7147c2" stroke-linecap="round" stroke-linejoin="round" fill-rule="nonzero" stroke-width="3" marker-start="none" marker-end="none" stroke-miterlimit="79.8403193612775"/>
     </g>
    </g>
   </g>
  </g>
 </g>
</svg>
